<?xml version="1.0" encoding="UTF-8"?>
<svg version="1.1" viewBox="0 0 1600 1600" width="1280" height="1280" xmlns="http://www.w3.org/2000/svg">
<path transform="translate(0)" d="m0 0h1600v1600h-1600v-1600z"/>
<path transform="translate(0)" d="m0 0h1600v1600h-1600v-1600zm231 107c-0.774 3.08-0.665 6.13-0.622 9.3-0.00651 0.97-0.013 1.94-0.0197 2.94-0.0159 3.29 0.00424 6.58 0.0239 9.87-4e-3 2.38-0.0102 4.75-0.0184 7.13-0.0129 5.2-0.01 10.4 0.00633 15.6 0.0243 7.79 0.0199 15.6 0.00975 23.4-0.0165 13.3-0.0092 26.6 0.0109 39.8 0.0202 13.5 0.0296 26.9 0.0257 40.4-2.44e-4 0.849-4.88e-4 1.7-7.39e-4 2.57-0.00129 4.33-0.00276 8.66-0.00429 13-0.0107 31.4 0.00297 62.7 0.0296 94.1 0.0264 31.1 0.0429 62.1 0.0459 93.2 9.93e-5 0.964 1.99e-4 1.93 3.01e-4 2.92 9.06e-4 8.81 0.0017 17.6 0.00236 26.4 0.00164 21.9 0.00491 43.8 0.00931 65.7 2e-4 0.997 3.99e-4 1.99 6.05e-4 3.02 0.00987 48.5 0.0386 97 0.0686 146 0.0417 67.5 0.07 135 0.082 202 3.78e-4 2.1 7.56e-4 4.2 0.00114 6.3 0.00189 10.5 0.00374 20.9 0.00558 31.4 1.82e-4 1.03 3.63e-4 2.07 5.5e-4 3.13 9.13e-4 5.21 0.00182 10.4 0.00271 15.6 0.0122 71.1 0.0347 142 0.0597 213 0.00477 13.6 0.00923 27.2 0.0135 40.8 0.0131 41.8 0.0294 83.7 0.0559 126 0.00217 3.45 0.00434 6.89 0.00649 10.3 5.32e-4 0.846 0.00106 1.69 0.00161 2.56 0.00836 13.4 0.0134 26.9 0.0172 40.3 0.00375 13.2 0.0111 26.4 0.0224 39.5 0.00652 7.74 0.0103 15.5 0.0101 23.2 1.85e-4 5.73 0.00552 11.5 0.013 17.2 0.0022 2.32 0.00268 4.64 0.00135 6.96-0.00155 3.12 0.00292 6.24 0.00904 9.36-0.00192 0.915-0.00384 1.83-0.00581 2.77-0.382 3.95-0.382 3.95 1.14 7.27 1.69 0.0973 3.38 0.124 5.07 0.123 1.11 0.00199 2.21 0.00398 3.35 0.00603 1.23-0.00291 2.46-0.00583 3.73-0.00883 1.94 0.00128 1.94 0.00128 3.93 0.00259 3.61 0.00225 7.22-0.00178 10.8-0.00678 3.89-0.0043 7.78-0.00286 11.7-0.0021 6.74 5.25e-4 13.5-0.00262 20.2-0.00824 9.75-0.00811 19.5-0.0107 29.2-0.012 15.8-0.00219 31.6-0.00885 47.5-0.0183 15.4-0.00917 30.7-0.0163 46.1-0.0205 1.42-3.94e-4 1.42-3.94e-4 2.87-7.96e-4 4.75-0.0013 9.5-0.00257 14.2-0.00381 39.4-0.0104 78.8-0.028 118-0.0503 0.0962-65.7 0.192-131 0.286-197 0.00141-0.984 0.00282-1.97 0.00427-2.98 0.0307-21.4 0.0613-42.8 0.0919-64.3 0.015-10.5 0.03-21 0.0451-31.6 0.00149-1.05 0.00299-2.09 0.00453-3.17 0.0448-31.4 0.0904-62.8 0.136-94.1 0.0711-48.4 0.141-96.9 0.209-145 0.00277-1.97 0.00553-3.95 0.0083-5.92 0.193-138 0.193-138 0.215-357h2c0.166 1.23 0.332 2.46 0.502 3.73 2.11 15.6 4.33 31.2 6.56 46.8 0.318 2.22 0.635 4.44 0.952 6.66 7.6 53.1 15.3 106 23 159 3.55 24.4 7.08 48.8 10.6 73.2 0.142 0.984 0.284 1.97 0.431 2.98 3.36 23.3 6.72 46.6 10 69.8 1.74 12.2 3.51 24.4 5.32 36.7 0.106 0.716 0.211 1.43 0.32 2.17 0.87 5.9 1.74 11.8 2.61 17.7 2.86 19.4 5.67 38.7 8.36 58.1 2.4 17.3 4.88 34.6 7.41 51.9 0.297 2.03 0.594 4.06 0.892 6.09 0.154 1.05 0.307 2.1 0.465 3.18 2.35 16 4.66 32.1 6.98 48.1 0.961 6.64 1.92 13.3 2.88 19.9 0.117 0.81 0.234 1.62 0.355 2.45 1.43 9.9 2.87 19.8 4.32 29.7 6.04 41.3 11.9 82.7 17.8 124 6.44 45.2 6.44 45.2 13 90.5 0.321 2.21 0.64 4.42 0.959 6.63 1.07 7.39 2.15 14.8 3.26 22.2 0.139 0.935 0.278 1.87 0.421 2.83 0.386 2.57 0.784 5.14 1.19 7.7 0.112 0.752 0.224 1.5 0.339 2.28 0.282 1.74 0.657 3.47 1.05 5.19 3.33 1.67 7.08 1.13 10.7 1.12 0.916 8.54e-4 1.83 0.00171 2.78 0.00259 3.09 0.00166 6.18-0.00387 9.27-0.00932 2.21-2.82e-4 4.41-1.24e-4 6.62 4.43e-4 6.01 2.88e-4 12-0.00561 18-0.0126 6.27-0.00623 12.5-0.00684 18.8-0.00803 10.5-0.00276 21.1-0.00901 31.6-0.0179 10.9-0.00918 21.7-0.0163 32.6-0.0205 0.669-2.63e-4 1.34-5.25e-4 2.03-7.96e-4 3.35-0.00131 6.71-0.00257 10.1-0.00381 27.8-0.0105 55.7-0.0281 83.5-0.0503 3.69-23.1 6.77-46.2 9.86-69.3 0.753-5.64 1.51-11.3 2.27-16.9 1.27-9.49 2.54-19 3.81-28.5 1.61-12 3.22-24.1 4.83-36.1 1.41-10.5 2.81-21 4.22-31.5 0.44-3.29 0.881-6.59 1.32-9.88 3.63-27.2 7.22-54.3 10.7-81.5 2.43-18.7 4.96-37.4 7.57-56.1 2.78-19.9 5.45-39.9 8.13-59.8 0.875-6.52 1.75-13 2.64-19.5 0.106-0.778 0.211-1.56 0.32-2.36 0.155-1.14 0.155-1.14 0.313-2.31 1.86-13.7 3.69-27.4 5.48-41.1 0.155-1.18 0.155-1.18 0.313-2.38 1.04-7.95 2.09-15.9 3.12-23.9 2.13-16.3 4.29-32.6 6.56-48.8 1.72-12.3 3.39-24.5 5-36.8 0.156-1.18 0.156-1.18 0.315-2.39 1.14-8.71 2.27-17.4 3.37-26.1 0.398-3.16 0.796-6.31 1.2-9.47 0.101-0.795 0.201-1.59 0.305-2.41 1.75-13.8 3.7-27.5 5.7-41.2 2.65-18.2 5.06-36.5 7.31-54.8 0.148-1.2 0.297-2.41 0.45-3.64 0.147-1.19 0.293-2.38 0.444-3.6 0.287-2.32 0.573-4.65 0.86-6.97 0.137-1.11 0.274-2.22 0.416-3.37 1.43-11.6 3-23.1 4.65-34.7 0.992-6.99 1.96-14 2.93-21 0.105-0.753 0.209-1.51 0.317-2.28 3.33-23.9 6.58-47.9 9.65-71.9 1.81-14.1 3.69-28.2 5.58-42.2 0.126-0.942 0.252-1.88 0.382-2.86 0.236-1.77 0.473-3.53 0.71-5.3 0.161-1.2 0.161-1.2 0.325-2.43 0.102-0.76 0.205-1.52 0.31-2.3 0.198-1.52 0.383-3.05 0.557-4.58 0.636-5.57 0.636-5.57 1.73-6.67 0.322 86.1 0.628 172 1.27 458 0.00827 5.91 0.0167 11.8 0.0251 17.7 0.0825 57.7 0.159 115 0.23 173 0.00218 1.77 0.00436 3.54 0.00653 5.31 0.00162 1.32 0.00162 1.32 0.00327 2.66 0.00546 4.44 0.0109 8.87 0.0164 13.3 0.00162 1.32 0.00162 1.32 0.00327 2.66 0.036 29.2 0.0753 58.5 0.118 87.7 0.00603 4.1 0.012 8.2 0.018 12.3 0.00117 0.805 0.00234 1.61 0.00354 2.44 0.0185 12.8 0.0334 25.7 0.0467 38.5 0.0132 12.7 0.0298 25.4 0.0501 38.1 0.0108 6.85 0.02 13.7 0.0247 20.5 0.0044 6.25 0.0133 12.5 0.0259 18.7 0.00376 2.27 0.0058 4.53 0.00602 6.8 5.35e-4 3.05 0.00709 6.11 0.0153 9.16-0.00131 0.896-0.00262 1.79-0.00397 2.72-0.368 3.89-0.368 3.89 1.14 7.15 1.69 0.0973 3.38 0.124 5.07 0.123 1.11 0.00199 2.21 0.00398 3.35 0.00603 1.23-0.00291 2.46-0.00583 3.73-0.00883 1.94 0.00128 1.94 0.00128 3.93 0.00259 3.61 0.00225 7.22-0.00178 10.8-0.00678 3.89-0.0043 7.78-0.00286 11.7-0.0021 6.74 5.25e-4 13.5-0.00262 20.2-0.00824 9.75-0.00811 19.5-0.0107 29.2-0.012 15.8-0.00219 31.6-0.00885 47.5-0.0183 15.4-0.00917 30.7-0.0163 46.1-0.0205 1.42-3.94e-4 1.42-3.94e-4 2.87-7.96e-4 4.75-0.0013 9.5-0.00257 14.2-0.00381 39.4-0.0104 78.8-0.028 118-0.0503 0.0055-42.7 0.0108-85.4 0.0159-128 9.98e-5 -0.835 2e-4 -1.67 3.02e-4 -2.53 0.0107-89.5 0.0199-179 0.0262-268 1.39e-4 -1.99 2.79e-4 -3.97 4.18e-4 -5.96 0.00292-41.7 0.00564-83.4 0.00812-125 0.00125-20.9 0.00253-41.9 0.00385-62.8 1.99e-4 -3.16 3.97e-4 -6.32 5.95e-4 -9.48 0.00306-48.7 0.00697-97.3 0.0133-146 2.05e-4 -1.57 2.05e-4 -1.57 4.15e-4 -3.17 0.00221-16.9 0.0045-33.8 0.00679-50.6 0.0066-48.6 0.0127-97.2 0.0153-146 5.35e-5 -0.999 1.07e-4 -2 1.62e-4 -3.03 0.00117-21.9 0.00206-43.8 0.0027-65.8 2.62e-4 -8.82 5.62e-4 -17.6 8.76e-4 -26.5 3.34e-5 -0.965 6.69e-5 -1.93 1.01e-4 -2.92 0.0011-31.1 0.00537-62.3 0.0113-93.4 0.00596-31.3 0.00882-62.7 0.00734-94-2.03e-4 -4.32-3.7e-4 -8.65-5.16e-4 -13-2.99e-5 -0.848-5.98e-5 -1.7-9.05e-5 -2.57-3.82e-4 -13.5 0.00261-26.9 0.00699-40.4 0.00423-13.2 0.00494-26.4 0.00182-39.6-0.00172-7.76-6.63e-4 -15.5 0.00439-23.3 0.00343-5.74 0.00173-11.5-0.00208-17.2-7.21e-4 -2.32 2.77e-4 -4.65 0.0031-6.97 0.00356-3.13 0.00109-6.26-0.00304-9.39 0.00251-0.917 0.00502-1.83 0.0076-2.78 0.386-3.96 0.386-3.96-1.13-7.29-2.49-0.102-4.96-0.137-7.45-0.131-0.794-0.00205-1.59-0.00411-2.41-0.00622-2.69-0.00571-5.39-0.00421-8.08-0.00279-1.94-0.00258-3.87-0.00559-5.81-9e-3 -5.35-0.0081-10.7-0.00986-16.1-0.0106-5.76-0.00185-11.5-0.00939-17.3-0.0161-12.6-0.0136-25.2-0.0196-37.8-0.024-7.86-0.00276-15.7-7e-3 -23.6-0.0115-21.8-0.0122-43.5-0.0225-65.3-0.0259-1.41-2.22e-4 -2.82-4.43e-4 -4.22-6.65e-4 -1.41-2.21e-4 -2.82-4.41e-4 -4.23-6.61e-4 -2.83-4.43e-4 -5.66-8.9e-4 -8.49-0.00134-1.05-1.64e-4 -1.05-1.64e-4 -2.13-3.31e-4 -22.8-0.00363-45.5-0.0196-68.3-0.0429-24.1-0.0246-48.1-0.0383-72.2-0.0395-13.1-9.19e-4 -26.2-0.00672-39.4-0.0248-11.2-0.0154-22.3-0.0205-33.5-0.0123-5.7 0.00392-11.4 0.0029-17.1-0.0111-5.21-0.0126-10.4-0.0116-15.6 5.91e-4 -1.89 0.00197-3.79-0.0012-5.68-0.00984-2.56-0.011-5.12-0.0037-7.68 0.00839-0.746-0.0076-1.49-0.0152-2.26-0.023-2.89 0.0297-4.94 0.055-7.38 1.69-1.9 3.03-2.03 6.54-2.44 10-0.111 0.852-0.222 1.7-0.336 2.58-0.367 2.85-0.716 5.7-1.07 8.55-0.258 2.03-0.517 4.06-0.777 6.09-0.549 4.3-1.09 8.6-1.63 12.9-0.793 6.36-1.61 12.7-2.42 19.1-1.54 12-3.06 24-4.58 36-0.761 6.01-1.52 12-2.29 18-0.312 2.46-0.625 4.92-0.937 7.38-0.155 1.22-0.31 2.44-0.47 3.7-0.469 3.69-0.938 7.39-1.41 11.1-2.67 21.1-5.36 42.1-8.05 63.2-1.1 8.61-2.2 17.2-3.3 25.8-0.369 2.89-0.737 5.77-1.11 8.66-2.81 22-5.61 43.9-8.41 65.9-0.276 2.16-0.551 4.32-0.827 6.48-2.99 23.5-5.98 46.9-8.94 70.4-0.116 0.923-0.233 1.85-0.353 2.8-0.464 3.68-0.928 7.36-1.39 11-0.343 2.72-0.686 5.44-1.03 8.16-0.113 0.896-0.226 1.79-0.342 2.71-3.13 24.8-6.31 49.7-9.54 74.5-3.88 29.8-7.73 59.6-11.5 89.4-0.58 4.53-1.16 9.07-1.75 13.6-0.69 5.36-1.38 10.7-2.06 16.1-0.252 1.97-0.505 3.94-0.759 5.91-1.71 13.2-3.13 26.5-4.31 39.8h-2c-4.02-25.8-7.88-51.7-11.6-77.5-0.691-4.8-1.38-9.6-2.08-14.4-1.17-8.13-2.35-16.3-3.52-24.4-1.67-11.6-3.34-23.2-5.01-34.8-2.39-16.6-4.78-33.2-7.17-49.8-2.77-19.3-5.55-38.5-8.33-57.8-0.332-2.3-0.664-4.6-0.996-6.9-1.03-7.1-2.05-14.2-3.08-21.3-1.43-9.87-2.85-19.7-4.27-29.6-0.624-4.34-1.25-8.67-1.88-13-3.1-21.4-5.97-42.7-8.8-64.1-9.77-73.8-20.1-148-32.2-221-0.666-4.04-1.31-8.08-1.94-12.1-0.134-0.853-0.269-1.71-0.407-2.59-0.241-1.53-0.476-3.07-0.703-4.6-0.589-3.95-0.589-3.95-3-7.07-2.53-0.198-4.95-0.27-7.48-0.254-0.784-0.00321-1.57-0.00641-2.38-0.00972-2.66-0.00837-5.31-0.00235-7.97 0.0035-1.91-0.00302-3.82-0.0069-5.74-0.0116-5.28-0.0103-10.6-0.00808-15.8-0.00382-5.68 0.00246-11.4-0.00653-17-0.014-11.1-0.0128-22.3-0.0145-33.4-0.0122-9.05 0.00178-18.1 4.09e-5 -27.2-0.00422-1.29-5.95e-4 -2.57-0.00119-3.9-0.0018-2.61-0.00121-5.22-0.00243-7.84-0.00364-17.6-0.00779-35.1-0.0117-52.7-0.00768-0.687 1.56e-4 -1.37 3.13e-4 -2.08 4.74e-4 -3.48 8.06e-4 -6.96 0.00165-10.4 0.00251-0.692 1.71e-4 -1.38 3.42e-4 -2.1 5.18e-4 -1.4 3.47e-4 -2.8 6.95e-4 -4.2 0.00105-21.8 0.00536-43.5-0.00257-65.3-0.021-24.4-0.0207-48.9-0.0314-73.3-0.0274-12.9 0.00192-25.9-6.12e-4 -38.8-0.0147-11-0.0119-22-0.0134-33.1-0.00121-5.62 0.00591-11.2 0.00693-16.9-5e-3 -5.15-0.0108-10.3-0.00784-15.4 0.00626-1.87 0.00267-3.73 2.21e-4 -5.6-0.00774-2.53-0.01-5.06-0.00174-7.58 0.0113-0.731-0.00731-1.46-0.0146-2.21-0.0221-4.44 0.0477-7.29 0.419-10.6 3.4z" fill="#FDFDFD"/>
</svg>
